<?xml version="1.0" encoding="utf-8"?>
<!-- Generator: Adobe Illustrator 16.0.0, SVG Export Plug-In . SVG Version: 6.00 Build 0)  -->
<!DOCTYPE svg PUBLIC "-//W3C//DTD SVG 1.1//EN" "http://www.w3.org/Graphics/SVG/1.1/DTD/svg11.dtd">
<svg version="1.1" id="Layer_1" xmlns="http://www.w3.org/2000/svg" xmlns:xlink="http://www.w3.org/1999/xlink" x="0px" y="0px"
	 width="192.756px" height="192.756px" viewBox="0 0 192.756 192.756" enable-background="new 0 0 192.756 192.756"
	 xml:space="preserve">
<path fill-rule="evenodd" clip-rule="evenodd" fill="#FFFFFF" d="M184.033,96.888c0,48.328-39.172,87.5-87.5,87.5
	s-87.5-39.172-87.5-87.5s39.172-87.5,87.5-87.5S184.033,48.56,184.033,96.888z"/>
<path fill-rule="evenodd" clip-rule="evenodd" fill="#168275" stroke="#168275" stroke-width="1.079" stroke-linecap="round" stroke-linejoin="round" stroke-miterlimit="2.6131" d="
	M18.588,96.281c0-42.731,34.961-77.887,77.886-77.887c42.926,0,77.887,35.155,77.887,77.887c0,42.924-34.961,78.08-77.887,78.08
	C53.55,174.361,18.588,139.205,18.588,96.281L18.588,96.281z M16.258,96.281c0,44.283,35.933,80.217,80.217,80.217
	c44.091,0,80.023-35.934,80.023-80.217c0-44.091-35.933-80.023-80.023-80.023C52.19,16.258,16.258,52.19,16.258,96.281
	L16.258,96.281z"/>
<path fill-rule="evenodd" clip-rule="evenodd" fill="#168275" stroke="#168275" stroke-width="1.079" stroke-linecap="round" stroke-linejoin="round" stroke-miterlimit="2.6131" d="
	M149.111,109.488c-2.33,1.943-5.438,1.943-7.769,3.691c-1.165,1.164-0.972,2.33-0.389,3.883c0.971,1.75,0.389,1.555-0.776,2.137
	c-2.914,0.973-2.914,4.08-6.604,3.691c-0.194,0-0.971-0.389-0.583,0.193c0.389,0.584,0.583,0.195,1.359,0.195
	c1.36,0.193,1.749-0.389,2.72-0.971c1.359-1.166,1.166-1.555,2.72-2.332c0.389,0,1.359-0.193,1.942-0.193
	c0.193,0.389,0.193,0.389,0.193,0.777c0,0.775-1.359,1.553-1.942,1.748c0.777,0.582,1.942,1.359,1.749,2.135
	c-0.194,0.389-0.194,0.584-0.777,0.777c-0.583,0.389-2.137,0.389-3.496-0.777c-0.194,0.195-0.389-0.387-0.972,0.195
	c1.36,1.359,3.108,0.971,3.303,1.359c0.389,0.193-0.972,1.943-0.972,2.137c-0.776,2.525,0.194,4.662-0.194,6.992
	c-0.194,1.941-0.776,2.914-2.524,4.078c-3.108,2.137-5.244,2.721-8.741,3.303c-8.934,0.582-14.761-2.525-21.171-7.381
	c-6.604-4.855-9.129-7.381-11.071-10.1c0-1.166,0.777-1.943,0-3.303c-0.582,0.389-0.389,1.166-0.777,1.555
	c-0.582,0.777-1.748,1.164-2.719,1.164c-2.525-0.971-2.719-4.078-4.273-5.826c-3.69-3.496-4.661-8.74-2.913-13.014
	c0.777-1.359,1.942-2.525,3.496-3.107c1.554-0.193,3.496-0.193,4.468,1.555c1.359,1.164,2.137,3.107,2.525,4.855
	c0.582,0.971-0.195,1.748,0.776,2.525c1.554,0.193,2.913,0.582,4.272-0.389c1.166,0.193,1.166,1.359,2.138,1.941l1.359,0.777
	c1.554,0.777,3.69,0.777,5.05-0.389c2.525-2.525,1.942-5.244,2.719-7.963c2.331-2.137,3.885-5.051,3.885-7.965
	c-0.194-1.941-0.777-3.689-1.748-5.633c0.194-0.971,0.777-1.747,0.971-2.719c0.389,0,0.777,0,0.972-0.193
	c2.72-0.583,5.05-2.914,6.216-5.439l0.194-0.193c2.913-0.195,6.798-1.359,8.352-4.468c0.389-1.36,1.942-0.388,2.913-0.583
	c1.555-0.193,3.302-0.971,4.273-1.941c0.583-0.195,0.777,0.193,0.972,0.388c0.582,2.331,1.942,4.468,2.719,6.993
	c0.971,1.748,1.165,3.496,0.971,5.244c0.194,2.719,1.942,5.438,3.108,8.352c0.971,2.914,2.913,6.021,4.078,8.936
	C149.306,107.352,149.889,108.322,149.111,109.488L149.111,109.488z M149.694,104.244c-2.137-4.855-4.467-8.935-6.215-13.984
	c-1.36-1.748-0.583-3.69-0.777-5.633c-0.777-2.719-1.942-5.05-3.107-7.964c-0.389-0.776,0.583-0.971,0.776-1.747
	c0.583-1.36,0.194-2.914-0.389-4.469c-0.388-0.775,0.583-1.164,0.389-1.941c0-1.359-0.971-2.331-1.942-2.914
	c-1.359-1.941-1.942-2.913-3.496-4.661v-0.389c0.777-0.583,1.359-1.942,1.359-3.107c-0.193-1.165-0.582-2.331-1.747-3.108
	c-1.942-1.164-3.69,0.584-5.245,1.36c-0.582,0.388-0.776,0.583-1.359,0.583c-0.194-0.195-0.776-0.195-1.165-0.389
	c-0.389,0.389-0.777,0.776-1.359,1.359l1.748,0.582c0.193,0.195,0.193,0.195,0.193,0.389l0,0c-0.193,0.195-4.272,3.691-4.272,3.691
	l-7.381,7.381l-2.137,2.136l-6.604,7.575c-3.496,3.885-8.546,10.488-11.653,15.344c-1.555,2.137-3.108,4.469-4.662,6.799
	c0,0.193-0.389,0.193-0.777,0.193s-0.777,0-0.971,0l0,0l0,0l0,0c-1.748,0.389-2.914,0.777-4.079,1.943
	c-1.942,1.941-2.719,4.467-2.719,6.992c0,1.941,0.388,3.689,1.36,5.633c-0.389,0.971-1.36,1.941-1.942,2.719l-0.389,0.389
	l-0.583,0.389c-0.194,0.389-0.583,0.777-0.971,1.166l0,0c0,0.193,0,0.389,0.194,0.582h0.194h0.194
	c1.554-0.389,2.525-1.555,3.302-2.719l0.776-0.777c0.194,0,0.194,0,0.583,0.193c0,0,0.194,0.195,0.194,0.389l0,0
	c0,0,0,0.389,0,0.584c-3.69,3.689-6.798,5.631-10.488,7.963l-0.777,0.389h0.777c1.554,0.193,2.913-0.584,4.273-1.555l1.748-0.777
	c1.554-0.775,3.107-1.941,4.467-3.301l1.359-0.971c0.194,0,0.389,0,0.389,0.193c0,0,0,0,0.194,0.195l1.165,2.33
	c-0.194,1.164-0.194,2.33-0.194,3.301c0,2.332,0.389,4.662,0.972,6.992c0.389,2.332,0.971,4.662,0.971,6.992c0,0,0,0.195,0,0.389
	c0,0.777-0.777,1.748-1.554,1.943c-1.359,0.193-3.107,0.193-5.05,0.193c-2.331,0-4.662,0.195-6.604,0.584
	c-0.582,0.193-1.165,0.389-1.942,0.582c-0.583,0.193-1.36,0.389-1.749,0.389h-0.193h-0.195l-0.194,0.193
	c-0.194,0.195-0.389,0.389-0.389,0.584c-0.194,0-0.194,0-0.194,0c0,0.389,0.194,0.582,0.389,0.582
	c0.194,0.193,0.194,0.193,0.388,0.193c0.583,0,1.166-0.193,1.943-0.387c0.194-0.195,0.777-0.389,1.165-0.389
	c3.885-0.777,7.963-0.584,10.877-0.195c1.359-0.193,3.69-0.193,4.468-2.137c0.388-0.775,0.388-1.553,0.388-2.33s0-1.555-0.194-2.33
	l-0.388-1.943c0-1.164-0.194-2.33-0.583-3.496c-0.389-2.137-0.777-4.273-0.777-6.41c0-0.389,0-0.582,0-1.164h0.195
	c0.193-0.195,0.193,0,0.388,0.193c0.389,0.195,0.583,0.389,0.777,0.389c0.194,0.193,0.582,0.193,0.776,0.193
	c0.389,0,0.583,0.195,0.583,0.389c0.194,1.943,0.776,3.885,1.554,5.633c0.389,1.359,0.777,2.721,0.971,4.08
	c0.584,2.137,1.166,4.467,1.166,6.604c0,1.359-0.194,2.719-0.582,4.078c-0.973,1.748-3.303,1.748-5.245,1.943h-0.776l-5.051-0.389
	c-4.467-0.389-8.74-0.777-13.401,0l-1.166,0.193c-0.583,0-1.166,0.195-1.749,0c-0.194-0.193-0.194-0.389-0.194-0.775
	c0-0.195,0-0.195,0-0.389c0.777-1.748,1.166-3.303,1.166-4.857c0-1.164-0.194-2.33-0.777-3.107c-1.166-2.33-2.525-3.885-4.079-5.049
	c-1.942-1.943-3.69-3.691-5.244-5.633c-0.777,0-1.36-0.195-1.554-0.195l0,0l-0.971,0.973c1.166,1.164,2.137,2.135,3.496,3.496
	c1.943,0.971,3.497,2.912,4.856,4.271c1.748,1.943,2.137,4.08,1.748,6.41c-0.194,2.719-2.719,3.885-4.467,5.828
	c-0.583,1.359-1.166,2.912,0,4.271c0.388,1.555,3.108,1.361,3.496,2.525c0.777,3.107,5.827,4.855,6.993,4.855
	c0.971,0.195,1.942,1.166,1.942,1.166c2.137,1.555,4.662,1.166,6.216,0.971c1.359-0.193,3.884,0.971,5.438,0.777
	c2.525-0.971,4.467-0.582,6.992-0.777c7.77,0,16.51,0,24.474,0.971c1.554-0.193,3.302,0.777,4.661,0.195
	c0.194-0.582,0-1.166,0-1.555c-3.885-6.02-4.467-12.625-2.33-19.229h1.554c5.05,0.582,9.712,0,14.955-3.107
	c2.72-1.359,4.079-4.855,3.886-7.188c0-1.553-0.583-3.496-0.389-5.049c0.193-0.777,0.582-1.943,1.359-2.332
	c0.194-0.193,1.165-0.775,1.554-1.553c0.583-1.555-0.583-2.137-0.971-2.33c0.971-0.195,1.748-2.137,0.971-3.303
	c-0.583-0.582-1.165-2.719-1.165-3.303c-0.194-0.971-0.194-1.941,0.582-2.719c2.137-0.971,4.079-1.166,6.216-2.137
	c1.554-0.582,2.331-2.137,2.331-3.496L149.694,104.244L149.694,104.244z M65.398,152.803c-0.194,0.387-0.194,0.775-0.194,1.359
	c-0.194,0.389-0.972,0-1.166-0.195c-0.971-0.582-0.971-0.193-1.166-1.164c0-0.584,0-1.166,0.777-1.555s1.748-0.777,2.331,0
	C65.981,151.637,65.398,152.219,65.398,152.803L65.398,152.803z M70.642,159.211c-1.359,0-2.136-0.582-2.719-2.135
	c-0.583-1.748-0.776-3.303-0.388-5.246c0.194-0.193,0.388-0.387,0.583-0.193l1.748-0.777c0.389-0.193,0.972-0.193,1.554,0
	l0.195,0.389c0,0.971-0.195,1.555-0.195,2.525c0,2.33-0.388,2.914,0.389,5.049C71.614,159.406,71.031,159.211,70.642,159.211
	L70.642,159.211z M139.789,74.527c-0.194,0.193-0.389,0.389-0.777,0.389c-0.583-0.584-0.389-0.972-0.194-1.555
	c0-0.194,0-0.194,0.194-0.194c0.389,0,0.583,0.194,0.583,0.194C139.789,73.75,139.789,74.139,139.789,74.527L139.789,74.527z
	 M92.008,102.107c4.079-7.381,9.129-13.79,14.373-20.588l7.575-8.353c5.244-5.827,11.266-11.653,17.869-16.121
	c0.777-0.389,1.165-1.554,1.942-0.776l0.777,0.776c0.582,0.583,0.193,2.137-0.389,2.72c-0.389,0.193-0.777,0.582-1.166,0.971
	c1.166,1.359,3.108,3.69,4.662,5.244c0.583,0.583,0.389,1.359,1.554,1.942c0.583,0.194,0.776,0.972,0.389,1.554
	c-0.972,1.359-2.72,0.971-4.273,1.359c-5.05,1.166-9.323,2.72-14.956,5.439c-4.467,2.524-8.157,5.05-11.459,9.322
	c-1.36,1.555-2.72,2.72-3.885,4.468c-2.913,3.885-5.244,7.575-7.575,11.653c-0.972,1.166-1.165,1.748-2.331,2.914
	c-0.582,0.582-1.165-0.582-1.554-0.971c0-0.195,0-0.195,0-0.195c-0.194,0-0.388,0-0.583,0
	C92.785,102.885,91.813,102.689,92.008,102.107L92.008,102.107z M137.264,73.556c0,1.36-1.942,2.524-3.496,2.913
	c-0.583,0.194-1.359,0.194-1.942,0.194c-0.194-0.194-0.194-0.194-0.194-0.388c0-0.777,0.194-1.166,0.194-1.748l0.389-0.195
	c1.554-0.388,3.107-0.776,4.661-0.971C137.069,73.361,137.264,73.361,137.264,73.556L137.264,73.556z M122.696,77.246l0.194-0.389
	c0.971-0.389,2.137-0.971,3.496-1.359l1.359-0.389c0.583-0.389,1.359-0.582,1.554,0c0.194,1.748-1.359,4.273-3.495,5.244
	c-0.777,0.194-1.555,0.389-2.525,0.583c-0.194-0.194-0.972,0.194-0.972-0.389C122.308,79.577,122.696,78.217,122.696,77.246
	L122.696,77.246z M106.964,112.596c-0.583,0.195-4.079-1.164-3.69-0.777c-0.777-0.971,0.582-1.359-2.525-2.523l-0.777,0.193
	c-0.193,0-0.388,0.195-0.776-0.193c0-0.584,0.776-0.389,0.776-0.973c1.166-2.523,0.583-4.66,0.583-7.186L101.137,99
	c1.748-1.943,1.748-2.137,2.719-3.302c1.166-1.554,1.36-1.554,2.72-2.72c0.389-0.389,0.776-0.389,0.971-0.193
	c0.777,0.582,0.777,0.971,0.972,1.553c0.389,2.525-1.166,4.273-2.914,5.633c-1.359,1.166-2.524,2.719-2.33,4.467v0.195
	c0.777-0.582,1.359-0.777,1.748-1.359c0.776-2.33,3.496-3.303,5.05-5.244c0.777-1.166,0.194-3.107,0-4.468
	c0,0.194,1.942-0.972,1.554-0.583c0.777,0.389,0.777,1.166,1.166,1.943c0.776,2.135,0.776,4.271-0.583,6.215l-3.69,4.467
	C108.518,108.129,109.101,111.043,106.964,112.596L106.964,112.596z M111.819,90.065c-0.971,0.388-1.748,0.583-2.913,0
	c-0.194-0.194-0.972-0.583-0.777-0.972c0.777-1.359,1.942-2.137,2.72-3.302l0.388-0.194c1.555-1.941,3.885-3.496,6.216-4.855
	l1.359-0.389c0.194-0.389,0.972-1.165,1.165-0.389c0,2.331-0.971,4.855-3.302,6.604c-1.359,0.971-1.748,0.776-3.107,0.971
	l-0.583,0.972C112.791,89.094,112.402,89.678,111.819,90.065L111.819,90.065z M99.194,103.662v1.553
	c-0.194,1.555-0.776,3.496-2.331,4.273c-0.776-0.193-0.582-1.359-0.776-1.941c0.583-1.555,1.748-2.721,2.524-4.273
	c0.194,0,0.389,0,0.389,0L99.194,103.662L99.194,103.662z M78.8,161.932c-0.583,0.775-0.971,0.389-1.554,0.389
	c-1.749-0.389-2.719-1.166-3.302-3.109c-0.583-2.719-0.583-5.826,0-8.545l0.194-0.195c1.359-0.193,3.108-0.389,3.69,0
	c0.388,0.195-0.583,5.051-0.583,5.051c0,0.971,0.583,3.496,0.971,4.855C78.217,160.377,79.188,161.543,78.8,161.932L78.8,161.932z
	 M91.23,158.822c0,1.943-2.33,3.498-3.302,3.691c-1.165,0.389-4.467,0.193-5.244,0c-0.971-0.389-3.302-4.855-3.107-7.186
	c0-1.943,0.583-4.857,1.36-5.246c0.776-0.193,2.719,0,2.719,0c0.971,0,1.554,0.195,2.331,0.389c0.583,0,0,0.777,0.388,1.166
	c0.194,0.971,0.194,1.941,0.777,2.914c0.971,1.748,2.525,2.719,4.078,3.301C91.425,158.047,91.23,158.629,91.23,158.822
	L91.23,158.822z M88.9,151.443c0-0.195,0-0.389,0.193-0.584h1.555c1.359,0,2.913,0.584,4.078-0.777c0.777,0,0.777,0.777,0.972,1.555
	s0.194,1.359,0.194,2.33c-0.389,0.584-0.582,1.555-1.359,1.943c-0.972,0.389-2.137,0.389-3.108,0
	C89.871,154.939,88.9,153.578,88.9,151.443L88.9,151.443z M118.617,144.645c-1.942,6.799-2.913,10.1,0.194,17.092
	c0,0.195,0.389,1.166,0,1.359c-3.302-0.775-4.272-1.164-7.381-1.359c-2.913-0.389-7.769,0.389-10.877,0.389
	c-2.719,0-5.243,0.195-7.769,0.389c-0.777-0.389-0.389-1.359-0.195-1.748c0.195-0.971,0.389-1.359,0.389-2.525
	c0.389-0.389,0.972-0.193,1.359-0.389c1.749-0.193,3.303-1.748,3.497-3.301c0.583-1.748,0-3.691-0.777-5.244
	c0-0.389-0.776-0.777-0.388-1.166c1.941-3.885,0.582-7.963-0.195-11.848c-0.582-2.721-1.748-5.633-2.137-8.547
	c0-0.389-0.388-0.971,0.195-1.166l0.193,0.195c2.331,2.719,8.741,8.352,11.071,10.293c2.331,1.943,8.546,5.633,12.626,6.41
	C118.812,143.867,118.812,144.256,118.617,144.645L118.617,144.645z"/>
<path fill-rule="evenodd" clip-rule="evenodd" fill="#168275" stroke="#168275" stroke-width="1.079" stroke-linecap="round" stroke-linejoin="round" stroke-miterlimit="2.6131" d="
	M135.71,85.986c0.389,0.583,0.582,0.971,0.389,1.554c-0.777,0-0.972-0.971-1.554-1.359c-1.166-0.389-2.137,0-3.108,0.389
	c-2.719,1.165-5.05,3.302-7.575,4.468c-0.193,0-0.582,0-0.776-0.195c0.389-0.389,1.165-0.582,1.748-0.776
	c2.719-1.748,5.244-4.661,8.546-5.05C134.35,85.016,135.127,85.209,135.71,85.986L135.71,85.986z"/>
<path fill-rule="evenodd" clip-rule="evenodd" fill="#168275" stroke="#168275" stroke-width="1.079" stroke-linecap="round" stroke-linejoin="round" stroke-miterlimit="2.6131" d="
	M135.516,90.453c-0.194-0.582-0.194-1.748-0.971-1.941c-0.195,0.582,0,0.971-0.195,1.359c-0.193,0.194-0.582,0.582-1.165,0.389
	c-3.302,0.389-5.633,3.107-8.352,4.662c-0.972,0.582-1.942,0.776-2.914,1.164c-0.193,0-0.193,0.195,0,0.389
	c3.108,0.389,6.021,0.582,9.13,0.971l3.301-0.389c0.195-0.582-0.388-0.775-0.388-1.358c0.583-1.36,0.583-2.913,0.194-4.273
	C134.545,90.842,135.516,91.425,135.516,90.453L135.516,90.453z M133.185,95.698c-0.582,0.583-1.165,0-1.748,0.194
	c-1.359-0.194-3.496,0.193-5.05,0c-0.194-0.194-0.389-0.389-0.194-0.583c0.194-0.388,0.777-0.388,1.165-0.776
	c1.748-0.972,3.303-1.943,5.051-2.332c0.389,0,0.776,0.195,0.776,0.389C133.379,93.562,133.185,94.922,133.185,95.698
	L133.185,95.698z"/>
<path fill-rule="evenodd" clip-rule="evenodd" fill="#168275" stroke="#168275" stroke-width="1.079" stroke-linecap="round" stroke-linejoin="round" stroke-miterlimit="2.6131" d="
	M137.264,105.604c0,0,0.194-0.389,0.389-0.389c0.194,0.195,0.194,0.389,0.194,0.584c0,0.582-0.194,1.164-0.194,1.748
	c-0.389,0.775-0.389,1.553-0.389,2.33c0,0.389,0,0.582,0,0.777c0.583,0.582,1.165,0.777,1.942,0.582l1.359-0.777
	c1.166-0.775,2.137-1.359,4.273-1.941l0,0v0.193c0,0.195,0,0.389,0,0.584c0,0.193-1.942,0.971-1.942,0.971
	c-1.554,0.582-3.107,1.166-4.468,1.941c-0.388,0.195-0.776,0-1.165-0.193h-0.194c-0.583-0.777-0.583-1.555-0.583-2.33
	c0-0.584,0-1.361,0.194-1.943s0.389-1.166,0.389-1.941L137.264,105.604L137.264,105.604z"/>
<path fill-rule="evenodd" clip-rule="evenodd" fill="#168275" stroke="#168275" stroke-width="1.079" stroke-linecap="round" stroke-linejoin="round" stroke-miterlimit="2.6131" d="
	M91.23,105.021c1.166,2.137,0,4.273,0,6.604c0.194,0.582,1.555,0.582,1.166,1.359c-0.389,0.389-0.777,0.389-0.972,0
	c-0.776-0.193-0.971-0.582-0.971-1.166c-0.194-2.135,1.359-4.467,0-6.215c-0.389-0.582-1.165-0.777-1.554-0.971
	c-1.359,0.193-1.942,1.748-2.331,2.719c-0.777,2.525-0.971,5.439,1.359,7.381c1.36,0.777,2.914,1.748,3.108,3.496
	c0.193,0.195,0.582,0.584,0.971,0.389c0.389,0,0.389-1.166,0.971-0.777l0.195,0.584c-0.195,0.389-0.195,1.359-0.972,1.359
	c-0.389,0-0.777-0.195-1.165-0.389c-0.972-0.971-0.194-2.332-1.555-2.719c-2.33-0.777-3.884-3.107-4.079-5.439
	c-0.194-2.137,0-4.662,1.942-6.41c0.777-0.582,1.555-0.971,2.525-0.582C90.454,104.244,91.037,104.633,91.23,105.021L91.23,105.021z
	"/>
<path fill-rule="evenodd" clip-rule="evenodd" fill="#168275" stroke="#168275" stroke-width="1.079" stroke-linecap="round" stroke-linejoin="round" stroke-miterlimit="2.6131" d="
	M62.485,120.949c-4.273,1.941-5.439,6.992-5.633,7.186v0.389l0.388,0.193c0.194,0,4.079,1.359,8.935-0.971
	c4.662-2.33,5.633-7.186,5.633-7.186l0.194-0.584l-0.388-0.193C71.419,119.783,66.563,119.006,62.485,120.949L62.485,120.949z
	 M62.873,121.92c3.108-1.359,6.604-1.359,7.964-1.166c-0.389,1.359-1.748,4.467-5.245,6.021c-3.496,1.748-6.41,1.359-7.575,1.166
	C58.406,126.58,59.765,123.279,62.873,121.92L62.873,121.92z"/>
<path fill-rule="evenodd" clip-rule="evenodd" fill="#168275" stroke="#168275" stroke-width="1.079" stroke-linecap="round" stroke-linejoin="round" stroke-miterlimit="2.6131" d="
	M66.758,111.625c-4.273,1.943-5.827,6.799-5.827,6.992l-0.194,0.582h0.583c0,0,3.885,1.361,8.74-0.971
	c4.856-2.33,5.827-6.992,5.827-7.186v-0.389l-0.389-0.195C75.304,110.459,70.837,109.684,66.758,111.625L66.758,111.625z
	 M67.146,112.596c2.913-1.553,6.215-1.359,7.575-1.164c-0.389,1.164-1.554,4.078-5.244,5.826c-3.302,1.748-6.41,1.359-7.38,1.166
	C62.485,117.062,64.039,113.762,67.146,112.596L67.146,112.596z"/>
<path fill-rule="evenodd" clip-rule="evenodd" fill="#168275" stroke="#168275" stroke-width="1.079" stroke-linecap="round" stroke-linejoin="round" stroke-miterlimit="2.6131" d="
	M72.196,102.496c-4.273,1.748-6.021,6.799-6.215,6.992v0.389l0.388,0.193c0.194,0.195,4.079,1.166,8.935-1.164
	c4.661-2.137,5.827-6.604,5.827-6.799v-0.389l-0.389-0.193C80.548,101.33,76.275,100.748,72.196,102.496L72.196,102.496z
	 M72.584,103.467c2.914-1.359,6.216-1.164,7.381-0.971c-0.388,0.971-1.748,3.885-5.244,5.633c-3.302,1.555-6.41,1.359-7.575,1.166
	C67.729,107.936,69.477,104.826,72.584,103.467L72.584,103.467z"/>
<path fill-rule="evenodd" clip-rule="evenodd" fill="#168275" stroke="#168275" stroke-width="1.079" stroke-linecap="round" stroke-linejoin="round" stroke-miterlimit="2.6131" d="
	M77.44,93.562c-4.079,1.748-6.215,6.604-6.215,6.798l-0.194,0.584l0.583,0.193c0,0,3.884,0.971,8.74-1.166
	c4.856-2.33,6.021-6.604,6.021-6.798v-0.388l-0.388-0.195C85.792,92.59,81.713,91.812,77.44,93.562L77.44,93.562z M78.023,94.533
	c2.914-1.36,6.021-1.166,7.187-0.972c-0.389,1.165-1.748,3.884-5.438,5.438c-3.302,1.555-6.216,1.359-7.381,1.166
	C72.973,99,74.916,95.698,78.023,94.533L78.023,94.533z"/>
<path fill-rule="evenodd" clip-rule="evenodd" fill="#168275" stroke="#168275" stroke-width="1.079" stroke-linecap="round" stroke-linejoin="round" stroke-miterlimit="2.6131" d="
	M85.016,84.627c-4.079,1.748-6.41,6.41-6.604,6.798l-0.389,0.388l0.777,0.195c0,0.193,3.884,0.971,8.741-1.166
	c4.855-2.33,6.021-6.409,6.021-6.409l0.194-0.583l-0.582-0.193C92.979,83.656,89.289,82.879,85.016,84.627L85.016,84.627z
	 M85.404,85.404c3.108-1.166,5.827-0.972,6.993-0.777c-0.389,1.165-1.748,3.69-5.244,5.244c-3.497,1.554-6.215,1.554-7.575,1.166
	C80.354,89.871,82.49,86.764,85.404,85.404L85.404,85.404z"/>
<path fill-rule="evenodd" clip-rule="evenodd" fill="#168275" stroke="#168275" stroke-width="1.079" stroke-linecap="round" stroke-linejoin="round" stroke-miterlimit="2.6131" d="
	M93.367,75.887c-4.273,1.748-6.798,6.409-6.992,6.798l-0.388,0.583l0.777,0.193c0,0,3.885,0.584,8.74-1.359
	c5.05-2.137,6.021-6.215,6.216-6.215v-0.582l-0.583-0.195C101.137,75.109,97.641,74.332,93.367,75.887L93.367,75.887z
	 M93.756,76.857c2.914-1.165,5.633-0.971,6.798-0.777c-0.583,0.972-1.942,3.497-5.438,5.051c-3.302,1.359-6.215,1.359-7.574,1.359
	C88.512,81.131,90.648,78.023,93.756,76.857L93.756,76.857z"/>
<path fill-rule="evenodd" clip-rule="evenodd" fill="#168275" stroke="#168275" stroke-width="1.079" stroke-linecap="round" stroke-linejoin="round" stroke-miterlimit="2.6131" d="
	M102.108,67.729c-4.273,1.748-6.993,6.41-7.187,6.604l-0.389,0.584l0.777,0.193c0.193,0,3.884,0.583,8.74-1.359
	c4.855-2.137,6.215-5.827,6.215-6.021l0.194-0.582h-0.583C109.683,67.146,106.381,66.175,102.108,67.729L102.108,67.729z
	 M102.496,68.699c2.914-1.164,5.438-0.971,6.604-0.776c-0.583,0.972-1.942,3.302-5.438,4.856c-3.303,1.359-6.021,1.553-7.381,1.359
	C97.058,72.779,99.583,69.865,102.496,68.699L102.496,68.699z"/>
<path fill-rule="evenodd" clip-rule="evenodd" fill="#168275" stroke="#168275" stroke-width="1.079" stroke-linecap="round" stroke-linejoin="round" stroke-miterlimit="2.6131" d="
	M111.236,60.154c-4.078,1.748-7.186,6.409-7.381,6.604l-0.582,0.582l0.777,0.195c0.193,0,4.078,0.388,8.934-1.555
	c5.051-1.941,6.216-5.438,6.216-5.826l0.194-0.389h-0.583C118.812,59.571,115.704,58.6,111.236,60.154L111.236,60.154z
	 M111.819,61.125c2.72-1.166,5.05-0.971,6.216-0.583c-0.583,0.972-1.942,3.108-5.438,4.468c-3.303,1.359-6.021,1.554-7.381,1.554
	C106.187,65.203,108.712,62.29,111.819,61.125L111.819,61.125z"/>
<path fill-rule="evenodd" clip-rule="evenodd" fill="#168275" stroke="#168275" stroke-width="1.079" stroke-linecap="round" stroke-linejoin="round" stroke-miterlimit="2.6131" d="
	M120.754,53.55c-4.272,1.554-7.77,6.216-7.963,6.409l-0.389,0.583l0.776,0.194c0.194,0,4.079,0.194,8.935-1.554
	c4.856-2.137,6.216-5.438,6.216-5.633l0.194-0.388l-0.583-0.195C127.94,52.967,125.027,51.996,120.754,53.55L120.754,53.55z
	 M121.143,54.326c2.719-0.971,5.05-0.776,6.021-0.582c-0.583,0.971-2.137,3.107-5.633,4.467c-3.107,1.166-5.827,1.555-7.188,1.555
	C115.315,58.406,118.035,55.492,121.143,54.326L121.143,54.326z"/>
<path fill-rule="evenodd" clip-rule="evenodd" fill="#168275" stroke="#168275" stroke-width="1.079" stroke-linecap="round" stroke-linejoin="round" stroke-miterlimit="2.6131" d="
	M55.881,111.432c-0.194,0.193-3.107,4.078-3.302,8.545c-0.388,4.662,3.302,8.158,3.497,8.352l0.389,0.389l0.388-0.389
	c0-0.193,3.107-2.912,3.302-8.352c0.194-5.244-3.496-8.545-3.69-8.545l-0.389-0.389L55.881,111.432L55.881,111.432z M53.355,120.561
	c0-0.195,0.194-0.389,0.194-0.584c0.194-3.301,1.942-6.408,2.719-7.381c0.971,0.973,2.914,3.303,2.914,6.992
	c0,0.195,0,0.389,0,0.389c-0.194,3.885-1.942,6.41-2.719,7.188C55.687,126.387,53.355,123.668,53.355,120.561L53.355,120.561z"/>
<path fill-rule="evenodd" clip-rule="evenodd" fill="#168275" stroke="#168275" stroke-width="1.079" stroke-linecap="round" stroke-linejoin="round" stroke-miterlimit="2.6131" d="
	M61.708,101.33c-0.194,0-2.525,2.721-3.497,6.41c0,0.582-0.194,1.166-0.194,1.748c-0.583,4.467,2.524,8.158,2.719,8.158l0.389,0.582
	l0.389-0.389c0-0.193,3.107-2.719,3.69-7.963c0.777-5.244-2.525-8.547-2.719-8.547l-0.388-0.387L61.708,101.33L61.708,101.33z
	 M58.794,110.459c0-0.193,0-0.582,0.194-0.971c0-0.582,0-0.971,0.194-1.359c0.777-2.914,2.137-4.855,2.914-5.633
	c0.776,0.777,2.33,2.914,2.33,6.215c0,0.195,0,0.584-0.194,0.973c-0.388,3.885-2.331,6.215-3.107,6.992
	C60.542,115.703,58.794,113.373,58.794,110.459L58.794,110.459z"/>
<path fill-rule="evenodd" clip-rule="evenodd" fill="#168275" stroke="#168275" stroke-width="1.079" stroke-linecap="round" stroke-linejoin="round" stroke-miterlimit="2.6131" d="
	M68.312,91.812c0,0-2.525,2.332-3.885,6.021c0,0.584-0.194,0.973-0.388,1.555c-0.777,4.273,1.942,8.158,2.136,8.352l0.194,0.389
	l0.389-0.193c0.194-0.195,3.302-2.721,4.273-7.576c1.166-5.05-1.748-8.547-1.942-8.547L68.7,91.425L68.312,91.812L68.312,91.812z
	 M64.815,101.137c0-0.582,0.194-0.971,0.194-1.555c0.194-0.389,0.194-0.971,0.388-1.359c0.971-2.719,2.525-4.467,3.302-5.244
	c0.583,0.777,1.554,2.525,1.554,5.244c0,0.584,0,1.166-0.194,1.943c-0.583,3.496-2.525,5.633-3.302,6.604
	C66.175,105.799,64.815,103.662,64.815,101.137L64.815,101.137z"/>
<path fill-rule="evenodd" clip-rule="evenodd" fill="#168275" stroke="#168275" stroke-width="1.079" stroke-linecap="round" stroke-linejoin="round" stroke-miterlimit="2.6131" d="
	M75.692,82.879c-0.194,0-2.72,2.137-4.273,5.633c-0.194,0.582-0.388,0.971-0.582,1.554c-0.972,4.272,1.165,8.353,1.359,8.353
	L72.391,99l0.582-0.389c0,0,3.302-2.33,4.468-7.187c1.554-5.05-0.971-8.353-1.166-8.546l-0.388-0.389L75.692,82.879L75.692,82.879z
	 M71.614,92.396c0-0.584,0-1.359,0.194-2.137c0.194-0.389,0.389-0.971,0.583-1.166c0.971-2.719,2.719-4.467,3.496-5.244
	c0.388,0.777,1.165,2.331,1.165,4.468c0,0.972-0.194,1.748-0.389,2.72c-0.971,3.496-2.913,5.438-3.884,6.408
	C72.391,96.475,71.614,94.727,71.614,92.396L71.614,92.396z"/>
<path fill-rule="evenodd" clip-rule="evenodd" fill="#168275" stroke="#168275" stroke-width="1.079" stroke-linecap="round" stroke-linejoin="round" stroke-miterlimit="2.6131" d="
	M83.462,74.527c0,0-2.72,1.748-4.662,5.438c0,0.389-0.195,0.777-0.583,1.36c-1.166,4.079,0.388,8.157,0.583,8.353l0.194,0.582
	l0.583-0.389c0,0,3.302-2.137,5.05-6.992c1.942-4.662-0.389-8.158-0.389-8.158l-0.194-0.582L83.462,74.527L83.462,74.527z
	 M78.8,84.627c0-0.971,0.194-1.942,0.583-2.914c0-0.582,0.194-0.971,0.389-1.359c1.359-2.525,3.107-4.078,3.884-4.661
	c0.389,0.583,0.777,1.747,0.777,3.496c0,0.972-0.194,2.137-0.777,3.496c-1.166,3.302-3.302,5.244-4.273,6.021
	C79.188,87.929,78.8,86.569,78.8,84.627L78.8,84.627z"/>
<path fill-rule="evenodd" clip-rule="evenodd" fill="#168275" stroke="#168275" stroke-width="1.079" stroke-linecap="round" stroke-linejoin="round" stroke-miterlimit="2.6131" d="
	M92.008,66.758c-0.194,0.193-2.914,1.359-5.05,5.05c-0.194,0.583-0.389,0.972-0.583,1.554c-1.554,3.885-0.583,7.964-0.388,8.158
	v0.776l0.777-0.388c0,0,3.302-2.137,5.438-6.604c2.331-4.662,0.583-8.158,0.388-8.354l-0.193-0.388L92.008,66.758L92.008,66.758z
	 M86.569,78.023c0-1.36,0.194-2.914,0.776-4.468c0.195-0.389,0.195-0.776,0.583-1.165c1.36-2.525,3.302-3.885,4.079-4.468
	c0.194,0.583,0.389,1.36,0.389,2.524c0,1.36-0.194,2.72-0.972,4.469c-1.554,3.107-3.69,4.855-4.661,5.632
	C86.569,79.965,86.569,78.994,86.569,78.023L86.569,78.023z"/>
<path fill-rule="evenodd" clip-rule="evenodd" fill="#168275" stroke="#168275" stroke-width="1.079" stroke-linecap="round" stroke-linejoin="round" stroke-miterlimit="2.6131" d="
	M100.942,59.766c-0.194,0-3.107,0.971-5.438,4.661c-0.193,0.388-0.389,0.776-0.777,1.36c-1.553,3.689-1.165,8.157-1.165,8.352
	l0.194,0.582l0.582-0.389c0.195,0,3.497-1.941,6.216-6.215c2.525-4.467,1.166-7.963,0.972-8.158l-0.194-0.582L100.942,59.766
	L100.942,59.766z M94.533,72.391c0-1.555,0.193-4.079,1.165-6.216c0.194-0.583,0.389-0.776,0.583-1.165
	c1.748-2.525,3.689-3.69,4.467-4.273c0.194,0.583,0.194,0.971,0.194,1.748c0,1.359-0.194,3.107-1.359,5.051
	c-1.748,3.107-3.885,4.855-5.05,5.632C94.533,72.779,94.533,72.584,94.533,72.391L94.533,72.391z"/>
<path fill-rule="evenodd" clip-rule="evenodd" fill="#168275" stroke="#168275" stroke-width="1.079" stroke-linecap="round" stroke-linejoin="round" stroke-miterlimit="2.6131" d="
	M110.46,53.162c-0.194,0-3.108,0.776-5.827,4.467c-0.389,0.193-0.582,0.777-0.777,1.165c-1.942,3.69-2.136,8.157-2.136,8.353v0.776
	l0.776-0.388c0.194-0.195,3.69-1.748,6.604-6.021c2.913-4.273,1.942-7.964,1.942-7.964l-0.194-0.583L110.46,53.162L110.46,53.162z
	 M104.633,59.377c0.194-0.389,0.583-0.971,0.777-1.166c1.748-2.524,3.884-3.496,4.661-3.885c0.194,0.195,0.194,0.389,0.194,0.777
	c0,1.359-0.389,3.496-2.137,5.827c-1.942,2.913-4.078,4.468-5.244,5.244C103.079,64.814,103.273,61.707,104.633,59.377
	L104.633,59.377z"/>
<path fill-rule="evenodd" clip-rule="evenodd" fill="#168275" stroke="#168275" stroke-width="1.079" stroke-linecap="round" stroke-linejoin="round" stroke-miterlimit="2.6131" d="
	M120.365,47.141c-0.389,0-3.302,0.582-6.215,4.078c-3.107,3.496-3.69,9.323-3.69,9.518l-0.194,0.777l0.777-0.194
	c0.193-0.194,3.689-1.748,6.992-5.827c3.302-4.079,2.719-7.77,2.719-7.963v-0.389H120.365L120.365,47.141z M114.927,51.996
	c1.942-2.525,4.079-3.303,4.856-3.69l0,0c0,1.165-0.194,3.69-2.525,6.604c-2.137,2.719-4.467,4.272-5.633,5.049
	C111.819,58.211,112.791,54.326,114.927,51.996L114.927,51.996z"/>
<path fill-rule="evenodd" clip-rule="evenodd" fill="#168275" stroke="#168275" stroke-width="1.079" stroke-linecap="round" stroke-linejoin="round" stroke-miterlimit="2.6131" d="
	M25.969,96.281c0,24.084,13.013,47.197,33.99,60.406l0.777,0.389l0.583-0.777c0.194-0.195,0.194-0.389,0.194-0.584
	c0-0.387-0.389-0.971-0.583-1.164l-1.166-1.166c-4.467-4.855-5.438-9.518-5.438-13.014c0-4.078,1.359-6.604,1.554-6.799l0.194-0.775
	l-0.389-0.584c-8.74-9.904-13.402-22.336-13.402-35.932c0-29.912,24.084-54.191,54.19-54.191c8.353,0,16.316,1.943,23.697,5.439
	l0.776,0.388l10.877-12.431l-1.165-0.777c-10.295-5.633-22.143-8.74-34.186-8.74C57.629,25.969,25.969,57.629,25.969,96.281
	L25.969,96.281z M28.3,96.281C28.3,58.794,58.794,28.3,96.475,28.3c11.071,0,21.949,2.72,31.854,7.769
	c-1.554,1.749-7.187,8.158-7.964,9.13c-7.574-3.497-15.538-5.438-23.891-5.438c-31.271,0-56.521,25.443-56.521,56.521
	c0,13.984,4.661,26.803,13.596,36.904c-0.583,1.164-1.554,3.689-1.554,7.186c0,2.719,0.777,6.215,2.719,9.711
	C38.206,137.068,28.3,117.062,28.3,96.281L28.3,96.281z"/>
<path fill-rule="evenodd" clip-rule="evenodd" fill="#168275" stroke="#168275" stroke-width="1.079" stroke-linecap="round" stroke-linejoin="round" stroke-miterlimit="2.6131" d="
	M121.143,45.586c-7.77-3.885-16.121-5.826-24.668-5.826c-31.271,0-56.521,25.443-56.521,56.521c0,14.178,4.855,27.191,13.984,37.486
	l0.971,0.971l4.273-6.41l-0.194-0.387c-0.389,0-0.582,0-0.971,0c0.194-0.195,0.194-0.584,0.389-0.777
	c-0.389-0.389-0.777-0.777-0.972-1.166c-0.389,0.582-0.777,0.971-0.971,1.166c-0.777-0.777-3.108-3.496-3.108-6.604
	c0-0.195,0.194-0.195,0.194-0.389c-4.079-6.992-6.215-14.957-6.215-23.891c0-26.998,21.948-48.947,49.14-48.947
	c6.604,0,13.014,1.359,19.035,3.885c0.583-0.777,1.165-1.165,1.942-1.553c-6.604-3.108-13.597-4.662-20.978-4.662
	c-28.357,0-51.276,23.113-51.276,51.277c0,12.43,3.69,23.113,11.266,32.242c-0.389,0.582-1.166,1.553-1.749,2.525
	c-8.158-9.518-12.431-21.561-12.431-34.768c0-29.912,24.084-54.191,54.19-54.191c7.77,0,15.539,1.748,22.726,5.051
	c-0.389,0.582-0.583,1.165-0.972,1.941c0.777-0.389,1.36-0.776,1.555-0.776l0,0c0,0.776,0,2.524-0.972,4.468h0.194l3.107-6.799
	L121.143,45.586L121.143,45.586z"/>
<path fill-rule="evenodd" clip-rule="evenodd" fill="#168275" stroke="#168275" stroke-width="1.079" stroke-linecap="round" stroke-linejoin="round" stroke-miterlimit="2.6131" d="
	M120.56,34.516l-5.438,6.797c0.583,0.195,0.972,0.389,1.554,0.584l5.438-6.799C121.531,34.903,121.143,34.709,120.56,34.516
	L120.56,34.516z"/>
<path fill-rule="evenodd" clip-rule="evenodd" fill="#168275" stroke="#168275" stroke-width="1.079" stroke-linecap="round" stroke-linejoin="round" stroke-miterlimit="2.6131" d="
	M110.071,31.408l-3.107,7.574c0.388,0.194,0.971,0.389,1.554,0.389l3.107-7.77C111.043,31.602,110.46,31.408,110.071,31.408
	L110.071,31.408z"/>
<path fill-rule="evenodd" clip-rule="evenodd" fill="#168275" stroke="#168275" stroke-width="1.079" stroke-linecap="round" stroke-linejoin="round" stroke-miterlimit="2.6131" d="
	M97.446,29.854l-0.776,8.352c0.582,0,0.971,0,1.553,0L99,30.048C98.418,29.854,98.029,29.854,97.446,29.854L97.446,29.854z"/>
<path fill-rule="evenodd" clip-rule="evenodd" fill="#168275" stroke="#168275" stroke-width="1.079" stroke-linecap="round" stroke-linejoin="round" stroke-miterlimit="2.6131" d="
	M85.21,30.824l1.554,8.158c0.582-0.193,0.971-0.193,1.554-0.193l-1.554-8.158C86.181,30.631,85.792,30.824,85.21,30.824
	L85.21,30.824z"/>
<path fill-rule="evenodd" clip-rule="evenodd" fill="#168275" stroke="#168275" stroke-width="1.079" stroke-linecap="round" stroke-linejoin="round" stroke-miterlimit="2.6131" d="
	M73.361,33.933l3.69,7.575c0.389-0.195,0.971-0.389,1.36-0.583l-3.69-7.381C74.333,33.738,73.75,33.933,73.361,33.933L73.361,33.933
	z"/>
<path fill-rule="evenodd" clip-rule="evenodd" fill="#168275" stroke="#168275" stroke-width="1.079" stroke-linecap="round" stroke-linejoin="round" stroke-miterlimit="2.6131" d="
	M62.097,39.565l5.438,6.216c0.388-0.195,0.971-0.583,1.36-0.777l-5.633-6.215C62.873,38.982,62.485,39.177,62.097,39.565
	L62.097,39.565z"/>
<path fill-rule="evenodd" clip-rule="evenodd" fill="#168275" stroke="#168275" stroke-width="1.079" stroke-linecap="round" stroke-linejoin="round" stroke-miterlimit="2.6131" d="
	M51.802,47.141l6.993,4.855c0.388-0.389,0.777-0.583,1.165-0.971l-6.992-4.856C52.579,46.558,52.19,46.752,51.802,47.141
	L51.802,47.141z"/>
<path fill-rule="evenodd" clip-rule="evenodd" fill="#168275" stroke="#168275" stroke-width="1.079" stroke-linecap="round" stroke-linejoin="round" stroke-miterlimit="2.6131" d="
	M43.062,56.852l8.158,3.107c0.194-0.582,0.583-0.971,0.971-1.359l-8.158-3.107C43.645,55.881,43.45,56.27,43.062,56.852
	L43.062,56.852z"/>
<path fill-rule="evenodd" clip-rule="evenodd" fill="#168275" stroke="#168275" stroke-width="1.079" stroke-linecap="round" stroke-linejoin="round" stroke-miterlimit="2.6131" d="
	M36.264,67.923l8.74,1.165c0.388-0.389,0.583-0.971,0.777-1.359l-8.74-1.165C36.846,66.951,36.652,67.34,36.264,67.923
	L36.264,67.923z"/>
<path fill-rule="evenodd" clip-rule="evenodd" fill="#168275" stroke="#168275" stroke-width="1.079" stroke-linecap="round" stroke-linejoin="round" stroke-miterlimit="2.6131" d="
	M31.99,80.16l8.741-0.777c0.194-0.583,0.388-1.166,0.388-1.555l-8.74,0.777C32.185,79.188,31.99,79.771,31.99,80.16L31.99,80.16z"/>
<path fill-rule="evenodd" clip-rule="evenodd" fill="#168275" stroke="#168275" stroke-width="1.079" stroke-linecap="round" stroke-linejoin="round" stroke-miterlimit="2.6131" d="
	M30.048,92.979l8.546-2.913c0-0.583,0-0.972,0.194-1.554l-8.74,2.913C30.048,92.008,30.048,92.396,30.048,92.979L30.048,92.979z"/>
<path fill-rule="evenodd" clip-rule="evenodd" fill="#168275" stroke="#168275" stroke-width="1.079" stroke-linecap="round" stroke-linejoin="round" stroke-miterlimit="2.6131" d="
	M30.631,105.992l7.77-5.049c0-0.584,0-1.166,0-1.75l-7.964,5.244C30.437,105.021,30.631,105.604,30.631,105.992L30.631,105.992z"/>
<path fill-rule="evenodd" clip-rule="evenodd" fill="#168275" stroke="#168275" stroke-width="1.079" stroke-linecap="round" stroke-linejoin="round" stroke-miterlimit="2.6131" d="
	M33.933,118.617l6.215-6.799c0-0.582-0.194-1.164-0.389-1.748l-6.215,6.992C33.544,117.646,33.738,118.229,33.933,118.617
	L33.933,118.617z"/>
<path fill-rule="evenodd" clip-rule="evenodd" fill="#168275" stroke="#168275" stroke-width="1.079" stroke-linecap="round" stroke-linejoin="round" stroke-miterlimit="2.6131" d="
	M39.954,130.854l4.272-8.352c-0.194-0.582-0.388-1.166-0.776-1.748l-4.468,8.547C39.177,129.883,39.565,130.271,39.954,130.854
	L39.954,130.854z"/>
<path fill-rule="evenodd" clip-rule="evenodd" fill="#168275" stroke="#168275" stroke-width="1.079" stroke-linecap="round" stroke-linejoin="round" stroke-miterlimit="2.6131" d="
	M47.334,140.953l2.331-9.711c-0.194-0.582-0.777-1.166-0.971-1.553l-2.525,9.904C46.558,139.982,46.946,140.564,47.334,140.953
	L47.334,140.953z"/>
<path fill-rule="evenodd" clip-rule="evenodd" fill="#168275" stroke="#168275" stroke-width="1.079" stroke-linecap="round" stroke-linejoin="round" stroke-miterlimit="2.6131" d="
	M119.589,53.162c0.194,0.388,0.388,0.388,0.583,0.582c0.193-0.194,0.388-0.194,0.582-0.194c0.194-0.194,0.389-0.194,0.583-0.388
	c-0.583-0.195-0.972-0.584-1.36-0.972C119.783,52.578,119.783,52.967,119.589,53.162L119.589,53.162z"/>
</svg>
